<svg width="20" height="21" viewBox="0 0 20 21" fill="none" xmlns="http://www.w3.org/2000/svg">
<path d="M18.7771 0.381836L19.7871 1.39255L9.07995 12.0997L8.06995 11.0897L18.7771 0.381836Z" fill="#BCBADA"/>
<path d="M19.9999 7.31254H18.5713V1.59825H12.8571V0.169678H19.9999V7.31254Z" fill="#BCBADA"/>
<path d="M16.4286 20.1697H2.14286C0.928571 20.1697 0 19.2411 0 18.0268V3.74112C0 2.52684 0.928571 1.59827 2.14286 1.59827H10V3.02684H2.14286C1.71429 3.02684 1.42857 3.31255 1.42857 3.74112V18.0268C1.42857 18.4554 1.71429 18.7411 2.14286 18.7411H16.4286C16.8571 18.7411 17.1429 18.4554 17.1429 18.0268V10.1697H18.5714V18.0268C18.5714 19.2411 17.6429 20.1697 16.4286 20.1697Z" fill="#BCBADA"/>
</svg>
