<svg width="23" height="25" viewBox="0 0 23 25" fill="none" xmlns="http://www.w3.org/2000/svg">
<path d="M20.8005 5.03437C21.7819 6.21206 22.2715 7.58603 22.2715 9.15629C22.2715 14.8474 19.0339 16.5158 15.9916 17.0065C16.3841 17.6935 16.4823 18.4786 16.4823 19.2637V23.2864C16.4823 23.7771 16.1878 24.0715 15.7953 24.0715C15.6918 24.073 15.589 24.0537 15.4931 24.0147C15.3972 23.9758 15.3101 23.918 15.2369 23.8448C15.1637 23.7716 15.1059 23.6845 15.067 23.5886C15.028 23.4927 15.0087 23.3899 15.0101 23.2864V19.2637C15.0618 18.8524 15.0179 18.4347 14.8817 18.0432C14.7455 17.6517 14.5208 17.2969 14.225 17.0065L14.7157 15.7306C17.7581 15.3381 20.8986 14.3567 20.8986 9.05815C20.8986 7.78232 20.4079 6.60463 19.5246 5.62322L19.3283 4.83917C19.7015 3.8988 19.7359 2.85786 19.4254 1.89495C18.9358 1.99201 17.9544 2.18937 16.2871 3.36706L15.6971 3.46412C13.3792 2.87556 10.951 2.87556 8.63315 3.46412L8.04323 3.36706C6.27885 2.28751 5.29744 1.99309 4.80566 1.99309C4.51124 2.9745 4.51124 4.05297 4.90272 4.93731L4.70752 5.72136C3.72611 6.70277 3.23541 7.9786 3.23541 9.15629C3.23541 14.3567 6.17963 15.4362 9.4172 15.8288L9.80976 17.1046C9.22092 17.6935 8.92649 18.4786 9.02463 19.2637V23.3845C9.02609 23.488 9.00677 23.5908 8.96783 23.6867C8.92889 23.7826 8.87111 23.8698 8.79791 23.9429C8.72471 24.0161 8.63758 24.0739 8.54167 24.1129C8.44576 24.1518 8.34301 24.1711 8.23951 24.1697C8.136 24.1711 8.03326 24.1518 7.93734 24.1129C7.84143 24.0739 7.7543 24.0161 7.68111 23.9429C7.60791 23.8698 7.55013 23.7826 7.51119 23.6867C7.47225 23.5908 7.45293 23.488 7.45438 23.3845V21.1284C4.21681 21.8154 2.94098 20.147 1.95958 18.8722C1.46887 18.2834 1.07631 17.7927 0.585605 17.6945C0.488543 17.5964 0.193042 17.2038 0.291183 16.8113C0.389323 16.4187 0.781887 16.1243 1.17553 16.3206C2.15694 16.5168 2.7447 17.302 3.33247 17.989C4.21681 19.1666 5.10008 20.2451 7.7488 19.6574V19.2648C7.65174 18.4797 7.84694 17.6945 8.23951 17.0075C5.29528 16.4187 1.86144 14.7503 1.86144 9.15737C1.86144 7.58711 2.35214 6.21314 3.33355 5.03545C3.03913 3.66256 3.13727 2.19045 3.62797 1.01276L4.11867 0.620195C4.31496 0.522054 5.68893 0.227632 8.53285 1.99309C10.8843 1.40432 13.3446 1.40432 15.6961 1.99309C18.4451 0.128412 19.9172 0.421756 20.1135 0.520975L20.6042 0.913539C21.0949 2.28751 21.193 3.66148 20.8005 5.03437V5.03437Z" fill="#BCBADA"/>
</svg>
