<svg width="83" height="15" viewBox="0 0 83 15" fill="none" xmlns="http://www.w3.org/2000/svg">
<path d="M6.408 9.374C6.408 10.106 6.318 10.766 6.138 11.354C5.958 11.942 5.688 12.443 5.328 12.857C4.974 13.271 4.53 13.589 3.996 13.811C3.462 14.033 2.841 14.144 2.133 14.144C1.809 14.144 1.491 14.123 1.179 14.081C0.867 14.045 0.54 13.985 0.198 13.901C0.216 13.661 0.237 13.421 0.261 13.181C0.285 12.941 0.306 12.701 0.324 12.461C0.342 12.329 0.393 12.224 0.477 12.146C0.567 12.062 0.693 12.02 0.855 12.02C0.957 12.02 1.089 12.041 1.251 12.083C1.419 12.125 1.629 12.146 1.881 12.146C2.223 12.146 2.526 12.098 2.79 12.002C3.054 11.9 3.273 11.741 3.447 11.525C3.627 11.309 3.762 11.03 3.852 10.688C3.942 10.34 3.987 9.92 3.987 9.428V0.985999H6.408V9.374ZM14.4214 12.047C14.8894 12.047 15.3064 11.969 15.6724 11.813C16.0444 11.657 16.3564 11.438 16.6084 11.156C16.8604 10.874 17.0524 10.532 17.1844 10.13C17.3224 9.728 17.3914 9.278 17.3914 8.78V0.985999H19.8124V8.78C19.8124 9.554 19.6864 10.271 19.4344 10.931C19.1884 11.585 18.8314 12.152 18.3634 12.632C17.9014 13.106 17.3374 13.478 16.6714 13.748C16.0054 14.012 15.2554 14.144 14.4214 14.144C13.5814 14.144 12.8284 14.012 12.1624 13.748C11.4964 13.478 10.9294 13.106 10.4614 12.632C9.99938 12.152 9.64238 11.585 9.39038 10.931C9.14438 10.271 9.02138 9.554 9.02138 8.78V0.985999H11.4424V8.771C11.4424 9.269 11.5084 9.719 11.6404 10.121C11.7784 10.523 11.9734 10.868 12.2254 11.156C12.4834 11.438 12.7954 11.657 13.1614 11.813C13.5334 11.969 13.9534 12.047 14.4214 12.047ZM29.4728 3.353C29.4008 3.479 29.3228 3.572 29.2388 3.632C29.1608 3.686 29.0618 3.713 28.9418 3.713C28.8158 3.713 28.6778 3.668 28.5278 3.578C28.3838 3.482 28.2098 3.377 28.0058 3.263C27.8018 3.149 27.5618 3.047 27.2858 2.957C27.0158 2.861 26.6948 2.813 26.3228 2.813C25.9868 2.813 25.6928 2.855 25.4408 2.939C25.1888 3.017 24.9758 3.128 24.8018 3.272C24.6338 3.416 24.5078 3.59 24.4238 3.794C24.3398 3.992 24.2978 4.211 24.2978 4.451C24.2978 4.757 24.3818 5.012 24.5498 5.216C24.7238 5.42 24.9518 5.594 25.2338 5.738C25.5158 5.882 25.8368 6.011 26.1968 6.125C26.5568 6.239 26.9258 6.362 27.3038 6.494C27.6818 6.62 28.0508 6.77 28.4108 6.944C28.7708 7.112 29.0918 7.328 29.3738 7.592C29.6558 7.85 29.8808 8.168 30.0488 8.546C30.2228 8.924 30.3098 9.383 30.3098 9.923C30.3098 10.511 30.2078 11.063 30.0038 11.579C29.8058 12.089 29.5118 12.536 29.1218 12.92C28.7378 13.298 28.2668 13.598 27.7088 13.82C27.1508 14.036 26.5118 14.144 25.7918 14.144C25.3778 14.144 24.9698 14.102 24.5678 14.018C24.1658 13.94 23.7788 13.826 23.4067 13.676C23.0408 13.526 22.6958 13.346 22.3718 13.136C22.0478 12.926 21.7598 12.692 21.5078 12.434L22.2188 11.273C22.2788 11.189 22.3568 11.12 22.4528 11.066C22.5488 11.006 22.6508 10.976 22.7588 10.976C22.9088 10.976 23.0708 11.039 23.2448 11.165C23.4188 11.285 23.6258 11.42 23.8658 11.57C24.1058 11.72 24.3848 11.858 24.7028 11.984C25.0268 12.104 25.4138 12.164 25.8638 12.164C26.5538 12.164 27.0878 12.002 27.4658 11.678C27.8438 11.348 28.0328 10.877 28.0328 10.265C28.0328 9.923 27.9458 9.644 27.7718 9.428C27.6038 9.212 27.3788 9.032 27.0968 8.888C26.8148 8.738 26.4938 8.612 26.1338 8.51C25.7738 8.408 25.4078 8.297 25.0358 8.177C24.6638 8.057 24.2978 7.913 23.9378 7.745C23.5778 7.577 23.2568 7.358 22.9748 7.088C22.6928 6.818 22.4648 6.482 22.2908 6.08C22.1228 5.672 22.0388 5.171 22.0388 4.577C22.0388 4.103 22.1318 3.641 22.3178 3.191C22.5098 2.741 22.7858 2.342 23.1458 1.994C23.5058 1.646 23.9498 1.367 24.4778 1.157C25.0058 0.947 25.6118 0.842 26.2958 0.842C27.0638 0.842 27.7718 0.962 28.4198 1.202C29.0678 1.442 29.6198 1.778 30.0758 2.21L29.4728 3.353ZM41.5117 2.975H37.5877V14H35.1667V2.975H31.2427V0.985999H41.5117V2.975ZM45.6446 14H43.2146V0.985999H45.6446V14ZM59.5294 0.985999V14H58.2874C58.0954 14 57.9334 13.97 57.8014 13.91C57.6754 13.844 57.5524 13.736 57.4324 13.586L50.6374 4.91C50.6734 5.306 50.6914 5.672 50.6914 6.008V14H48.5584V0.985999H49.8274C49.9294 0.985999 50.0164 0.991999 50.0884 1.004C50.1664 1.01 50.2324 1.028 50.2864 1.058C50.3464 1.082 50.4034 1.121 50.4574 1.175C50.5114 1.223 50.5714 1.289 50.6374 1.373L57.4594 10.085C57.4414 9.875 57.4264 9.668 57.4144 9.464C57.4024 9.26 57.3964 9.071 57.3964 8.897V0.985999H59.5294ZM78.3605 7.493C78.3605 8.447 78.2015 9.323 77.8835 10.121C77.5655 10.919 77.1185 11.606 76.5425 12.182C75.9665 12.758 75.2735 13.205 74.4635 13.523C73.6535 13.841 72.7535 14 71.7635 14H66.8045V0.985999H71.7635C72.7535 0.985999 73.6535 1.148 74.4635 1.472C75.2735 1.79 75.9665 2.237 76.5425 2.813C77.1185 3.383 77.5655 4.067 77.8835 4.865C78.2015 5.663 78.3605 6.539 78.3605 7.493ZM75.8765 7.493C75.8765 6.779 75.7805 6.14 75.5885 5.576C75.4025 5.006 75.1295 4.526 74.7695 4.136C74.4155 3.74 73.9835 3.437 73.4735 3.227C72.9695 3.017 72.3995 2.912 71.7635 2.912H69.2345V12.074H71.7635C72.3995 12.074 72.9695 11.969 73.4735 11.759C73.9835 11.549 74.4155 11.249 74.7695 10.859C75.1295 10.463 75.4025 9.983 75.5885 9.419C75.7805 8.849 75.8765 8.207 75.8765 7.493ZM82.9278 14H80.4978V0.985999H82.9278V14Z" fill="#3A3A3A"/>
</svg>
