<svg width="85" height="15" viewBox="0 0 85 15" fill="none" xmlns="http://www.w3.org/2000/svg">
<path d="M6.696 9.248C6.696 9.98 6.603 10.646 6.417 11.246C6.237 11.846 5.961 12.362 5.589 12.794C5.223 13.22 4.761 13.553 4.203 13.793C3.645 14.027 2.988 14.144 2.232 14.144C1.89 14.144 1.551 14.126 1.215 14.09C0.885 14.054 0.54 13.994 0.18 13.91L0.342 12.137C0.36 11.981 0.423 11.855 0.531 11.759C0.639 11.663 0.792 11.615 0.99 11.615C1.092 11.615 1.218 11.633 1.368 11.669C1.518 11.699 1.698 11.714 1.908 11.714C2.202 11.714 2.457 11.675 2.673 11.597C2.895 11.513 3.078 11.378 3.222 11.192C3.366 11 3.474 10.751 3.546 10.445C3.618 10.139 3.654 9.761 3.654 9.311V0.887H6.696V9.248ZM14.5808 11.597C14.9888 11.597 15.3518 11.531 15.6698 11.399C15.9938 11.261 16.2668 11.066 16.4888 10.814C16.7108 10.562 16.8788 10.256 16.9928 9.896C17.1128 9.53 17.1728 9.116 17.1728 8.654V0.887H20.2148V8.654C20.2148 9.458 20.0828 10.196 19.8188 10.868C19.5608 11.54 19.1888 12.119 18.7028 12.605C18.2168 13.091 17.6258 13.469 16.9298 13.739C16.2338 14.009 15.4508 14.144 14.5808 14.144C13.7048 14.144 12.9188 14.009 12.2228 13.739C11.5268 13.469 10.9358 13.091 10.4498 12.605C9.96384 12.119 9.59184 11.54 9.33384 10.868C9.07584 10.196 8.94684 9.458 8.94684 8.654V0.887H11.9888V8.645C11.9888 9.107 12.0458 9.521 12.1598 9.887C12.2798 10.247 12.4508 10.556 12.6728 10.814C12.8948 11.066 13.1648 11.261 13.4828 11.399C13.8068 11.531 14.1728 11.597 14.5808 11.597ZM29.8363 3.551C29.7463 3.695 29.6503 3.803 29.5483 3.875C29.4523 3.947 29.3263 3.983 29.1703 3.983C29.0323 3.983 28.8823 3.941 28.7203 3.857C28.5643 3.767 28.3843 3.668 28.1803 3.56C27.9823 3.452 27.7543 3.356 27.4963 3.272C27.2383 3.182 26.9443 3.137 26.6143 3.137C26.0443 3.137 25.6183 3.26 25.3363 3.506C25.0603 3.746 24.9223 4.073 24.9223 4.487C24.9223 4.751 25.0063 4.97 25.1743 5.144C25.3423 5.318 25.5613 5.468 25.8313 5.594C26.1073 5.72 26.4193 5.837 26.7673 5.945C27.1213 6.047 27.4813 6.164 27.8473 6.296C28.2133 6.422 28.5703 6.572 28.9183 6.746C29.2723 6.92 29.5843 7.142 29.8543 7.412C30.1303 7.682 30.3523 8.012 30.5203 8.402C30.6883 8.786 30.7723 9.251 30.7723 9.797C30.7723 10.403 30.6673 10.97 30.4573 11.498C30.2473 12.026 29.9413 12.488 29.5393 12.884C29.1433 13.274 28.6513 13.583 28.0633 13.811C27.4813 14.033 26.8183 14.144 26.0743 14.144C25.6663 14.144 25.2493 14.102 24.8233 14.018C24.4033 13.934 23.9953 13.817 23.5993 13.667C23.2033 13.511 22.8313 13.328 22.4833 13.118C22.1353 12.908 21.8323 12.674 21.5743 12.416L22.4743 10.994C22.5463 10.892 22.6393 10.808 22.7533 10.742C22.8733 10.67 23.0023 10.634 23.1403 10.634C23.3203 10.634 23.5003 10.691 23.6803 10.805C23.8663 10.919 24.0733 11.045 24.3013 11.183C24.5353 11.321 24.8023 11.447 25.1023 11.561C25.4023 11.675 25.7563 11.732 26.1643 11.732C26.7163 11.732 27.1453 11.612 27.4513 11.372C27.7573 11.126 27.9103 10.739 27.9103 10.211C27.9103 9.905 27.8263 9.656 27.6583 9.464C27.4903 9.272 27.2683 9.113 26.9923 8.987C26.7223 8.861 26.4133 8.75 26.0653 8.654C25.7173 8.558 25.3603 8.453 24.9943 8.339C24.6283 8.219 24.2713 8.075 23.9233 7.907C23.5753 7.733 23.2633 7.508 22.9873 7.232C22.7173 6.95 22.4983 6.602 22.3303 6.188C22.1623 5.768 22.0783 5.252 22.0783 4.64C22.0783 4.148 22.1773 3.668 22.3753 3.2C22.5733 2.732 22.8643 2.315 23.2483 1.949C23.6323 1.583 24.1033 1.292 24.6613 1.076C25.2193 0.853999 25.8583 0.743 26.5783 0.743C26.9803 0.743 27.3703 0.776 27.7483 0.842C28.1323 0.902 28.4953 0.995 28.8373 1.121C29.1793 1.241 29.4973 1.388 29.7913 1.562C30.0913 1.73 30.3583 1.922 30.5923 2.138L29.8363 3.551ZM41.9811 3.299H38.2911V14H35.2491V3.299H31.5591V0.887H41.9811V3.299ZM46.5868 14H43.5268V0.887H46.5868V14ZM60.5647 0.887V14H58.9807C58.7467 14 58.5487 13.964 58.3867 13.892C58.2307 13.814 58.0747 13.682 57.9187 13.496L51.7357 5.675C51.7597 5.909 51.7747 6.137 51.7807 6.359C51.7927 6.575 51.7987 6.779 51.7987 6.971V14H49.1167V0.887H50.7187C50.8507 0.887 50.9617 0.893 51.0517 0.905C51.1417 0.916999 51.2227 0.941 51.2947 0.977C51.3667 1.007 51.4357 1.052 51.5017 1.112C51.5677 1.172 51.6427 1.253 51.7267 1.355L57.9637 9.23C57.9337 8.978 57.9127 8.735 57.9007 8.501C57.8887 8.261 57.8827 8.036 57.8827 7.826V0.887H60.5647ZM79.1729 7.439C79.1729 8.387 79.0079 9.263 78.6779 10.067C78.3539 10.865 77.8949 11.558 77.3009 12.146C76.7069 12.728 75.9899 13.184 75.1499 13.514C74.3159 13.838 73.3889 14 72.3689 14H67.2749V0.887H72.3689C73.3889 0.887 74.3159 1.052 75.1499 1.382C75.9899 1.712 76.7069 2.168 77.3009 2.75C77.8949 3.332 78.3539 4.025 78.6779 4.829C79.0079 5.627 79.1729 6.497 79.1729 7.439ZM76.0589 7.439C76.0589 6.791 75.9749 6.206 75.8069 5.684C75.6389 5.162 75.3959 4.721 75.0779 4.361C74.7659 3.995 74.3819 3.716 73.9259 3.524C73.4699 3.326 72.9509 3.227 72.3689 3.227H70.3349V11.66H72.3689C72.9509 11.66 73.4699 11.564 73.9259 11.372C74.3819 11.174 74.7659 10.895 75.0779 10.535C75.3959 10.169 75.6389 9.725 75.8069 9.203C75.9749 8.681 76.0589 8.093 76.0589 7.439ZM84.0282 14H80.9682V0.887H84.0282V14Z" fill="white"/>
</svg>
